inDegrees=no
num_controls=7
num_derivatives=13
num_iterations=211
num_multipliers=7
num_parameters=0
num_slacks=7
num_states=26
objective=5.861044
objective_accelerations=0.845643
objective_balance=0.060277
objective_effort=0.306599
objective_height=4.581324
objective_ligament=0.067202
solver_duration=2323.748306
status=Solve_Succeeded
success=true
DataType=double
version=3
OpenSimVersion=4.4-2022-07-23-0e9fedc
endheader
time	/jointset/ground_pelvis/pelvis_tilt/value	/jointset/ground_pelvis/pelvis_tx/value	/jointset/ground_pelvis/pelvis_ty/value	/jointset/hip_l/hip_flexion_l/value	/jointset/hip_l/hip_adduction_l/value	/jointset/hip_l/hip_rotation_l/value	/jointset/back/lumbar_extension/value	/jointset/patellofemoral_l/patellar_flexion_l/value	/jointset/knee_l/knee_flexion_l/value	/jointset/knee_l/knee_adduction_l/value	/jointset/knee_l/knee_rotation_l/value	/jointset/ankle_l/ankle_angle_l/value	/jointset/subtalar_l/subtalar_angle_l/value	/jointset/ground_pelvis/pelvis_tilt/speed	/jointset/ground_pelvis/pelvis_tx/speed	/jointset/ground_pelvis/pelvis_ty/speed	/jointset/hip_l/hip_flexion_l/speed	/jointset/hip_l/hip_adduction_l/speed	/jointset/hip_l/hip_rotation_l/speed	/jointset/back/lumbar_extension/speed	/jointset/patellofemoral_l/patellar_flexion_l/speed	/jointset/knee_l/knee_flexion_l/speed	/jointset/knee_l/knee_adduction_l/speed	/jointset/knee_l/knee_rotation_l/speed	/jointset/ankle_l/ankle_angle_l/speed	/jointset/subtalar_l/subtalar_angle_l/speed	/forceset/tau_hip_flexion_l	/forceset/tau_hip_adduction_l	/forceset/tau_hip_rotation_l	/forceset/tau_knee_flexion_l	/forceset/tau_ankle_angle_l	/forceset/tau_subtalar_angle_l	/forceset/tau_lumbar_extension	lambda_cid13_p0	lambda_cid13_p1	lambda_cid13_p2	lambda_cid13_p3	lambda_cid13_p4	lambda_cid13_p5	lambda_cid14_p0	/jointset/ground_pelvis/pelvis_tilt/accel	/jointset/ground_pelvis/pelvis_tx/accel	/jointset/ground_pelvis/pelvis_ty/accel	/jointset/hip_l/hip_flexion_l/accel	/jointset/hip_l/hip_adduction_l/accel	/jointset/hip_l/hip_rotation_l/accel	/jointset/back/lumbar_extension/accel	/jointset/patellofemoral_l/patellar_flexion_l/accel	/jointset/knee_l/knee_flexion_l/accel	/jointset/knee_l/knee_adduction_l/accel	/jointset/knee_l/knee_rotation_l/accel	/jointset/ankle_l/ankle_angle_l/accel	/jointset/subtalar_l/subtalar_angle_l/accel	gamma_cid13_p0	gamma_cid13_p1	gamma_cid13_p2	gamma_cid13_p3	gamma_cid13_p4	gamma_cid13_p5	gamma_cid14_p0
0	-0.04079047189031856	0.06947342161298918	0.8960019638839071	0.1955292361009247	-0.321468758903992	-0.4940803879870351	-0.137903700187828	0.07015350928390496	0.07015350928391206	-0.1745329251994329	-0.1280132605662484	-0.06701017130107029	0.004519037239292954	0	0	0	0	0	0	0	0	0	0	0	0	0	0.1212988422177702	-0.1211614526805716	-0.03540027236874418	-0.2592728296382033	0.2226070710371415	-0.01334577295141005	-0.06328326694283844	35.92172977386232	-3.497917170938899	3.653438682161986	-7.876076877922277	-513.2556002136449	-86.7922634709555	-40.18987567183585	-5.005415452920519	-1.868605679393863	-1.058094499176854	13.6987796562814	-2.285070822304054	3.74072462541478	-2.941670712695407	11.17470628550736	11.17470628550715	0.9480057403314441	-0.8128913605583885	2.744576801468894	-1.014090901014122	-3.983555081211764e-08	1.609587600208736e-07	1.609063649486969e-07	2.013814949124946e-08	-2.314711908052697e-08	-6.26236627305305e-08	-6.297516101328661e-09
0.01	-0.04102954227049648	0.06938129541001525	0.8959506037406504	0.1961919983556364	-0.3215810844654363	-0.493892349558153	-0.1380571547882275	0.07069655684070837	0.07069655684069535	-0.1744890807122438	-0.1280470101299011	-0.06687807716302793	0.004467600236388202	-0.0475845912651564	-0.01833914782784499	-0.01023850750639138	0.1319531976226989	-0.02234131427847844	0.03743326927285116	-0.03040784077870426	0.1081230483365146	0.1081230483365142	0.008761841569817639	-0.006721938579353857	0.02630763541484281	-0.01021345453283259	0.1161053076133859	-0.1179662225296816	-0.03439100119694134	-0.2525217673038	0.2141432609732336	-0.01143951644402846	-0.05891239105640991	33.24758687401545	-3.929901682495258	3.804915110722061	-6.742486341617439	-514.1627580725821	-87.39800213070355	-40.20069568891012	-4.600573375834228	-1.803651391638802	-1.001705334051932	12.85368610126084	-2.190135112455411	3.71844817410916	-3.047878865243457	10.55813591329696	10.55813591329705	0.8389786464561878	-0.5976338712846255	2.557179759566026	-1.013924660826972	-8.361204357591211e-08	1.962617815223885e-07	2.483869655640205e-07	6.124894025915366e-08	-2.825128989819585e-07	-1.208426141875647e-07	-1.133068734297485e-08
0.02	-0.04173757704583635	0.0691083613173311	0.8957978632307931	0.1981563118437899	-0.321913117846037	-0.4933352144173901	-0.1385061954173733	0.07230624124200562	0.07230624124200777	-0.1743578673250254	-0.1281471368322762	-0.06648624210122372	0.004316238301873204	-0.09379287903118275	-0.03616157794204544	-0.02027607332016264	0.2603102466852348	-0.04394156383039961	0.07381934238125978	-0.05911720574883539	0.2133273688959657	0.2133273688959685	0.01747189438561314	-0.01327542774513751	0.05194818475264835	-0.01998498632202885	0.1109117730093195	-0.11477099237873	-0.03338173002510999	-0.2457707049691831	0.2056794509094367	-0.009533259936519805	-0.05454151516984835	30.64435212346072	-4.374950507419555	3.959217364824802	-5.784421902740639	-514.0343940294534	-87.81871130120675	-40.23252046512662	-4.730154753094542	-1.765262136664893	-1.017906160652829	12.97954994424873	-2.136857876992624	3.531285392526265	-2.601975550980772	10.59096073009461	10.59096073009512	0.9376479895269513	-0.7792014778443297	2.61115958606149	-0.9257063522868534	-1.273885363397066e-07	2.315648030239034e-07	3.358675661793442e-07	1.023597310270579e-07	-5.4187867888339e-07	-1.790615656445989e-07	-1.636385858462104e-08
0.03	-0.04290151125408499	0.06865978871768537	0.8955453845531702	0.2013874632346155	-0.3224573918558816	-0.4924196060166115	-0.1392334128448662	0.07495402892491694	0.07495402892492738	-0.174139769196143	-0.128312305115819	-0.06584113879839441	0.004069519256459354	-0.1387631653350909	-0.05346360054607176	-0.03021269051372243	0.3853230408570597	-0.06478461286887954	0.1091553163762927	-0.08607443283450252	0.3157356020099836	0.3157356020099837	0.02611234144589809	-0.01969752559349725	0.07695521650808586	-0.02928531575796106	0.105620137722757	-0.1100129509603733	-0.03241318617260338	-0.2400064509987243	0.1990924851616354	-0.009302453979848403	-0.05021136700029073	28.58349881813751	-4.221750160165406	4.057470253017827	-4.945093247470493	-513.7987934125282	-86.79523657179375	-40.28399747504607	-4.345861164444409	-1.699250467871612	-0.9806031687769045	12.1725714703669	-2.038799277157083	3.512657463205235	-2.704819250067264	9.991573043975482	9.991573043974988	0.8220132391936061	-0.5645692120937374	2.427884916928255	-0.9212444915917595	-1.594899491244236e-07	2.495658484560567e-07	4.048926223494921e-07	1.31878783711645e-07	-7.301770006875124e-07	-2.25202756626645e-07	-2.094312317412229e-08
